<?xml version="1.0" encoding="UTF-8" standalone="no"?><!DOCTYPE svg PUBLIC "-//W3C//DTD SVG 1.1//EN" "http://www.w3.org/Graphics/SVG/1.1/DTD/svg11.dtd"><!-- Generated by graphviz version 2.40.1 (20161225.0304)
 --><!-- Title: G Pages: 1 --><svg xmlns="http://www.w3.org/2000/svg" xmlns:xlink="http://www.w3.org/1999/xlink" width="365pt" height="411pt" viewBox="0.00 0.00 365.00 410.83">
<g id="graph0" class="graph" transform="scale(1 1) rotate(0) translate(4 406.8292)">
<title>G</title>
<polygon fill="#ffffff" stroke="transparent" points="-4,4 -4,-406.8292 361,-406.8292 361,4 -4,4"/>
<g id="clust1" class="cluster">
<title>cluster_original</title>
<polygon fill="none" stroke="#000000" stroke-width="0" points="8,-8.1073 8,-394.8292 167,-394.8292 167,-8.1073 8,-8.1073"/>
<text text-anchor="middle" x="87.5" y="-33.1073" font-family="Times,serif" font-size="14.00" fill="#000000">(1) Program with a single</text>
<text text-anchor="middle" x="87.5" y="-16.3073" font-family="Times,serif" font-size="14.00" fill="#000000">instruction stream</text>
</g>
<g id="clust2" class="cluster">
<title>cluster_duplicated</title>
<polygon fill="none" stroke="#000000" stroke-width="0" points="175,-8 175,-394.8292 349,-394.8292 349,-8 175,-8"/>
<text text-anchor="middle" x="262" y="-33" font-family="Times,serif" font-size="14.00" fill="#000000">(2) Program with duplicated</text>
<text text-anchor="middle" x="262" y="-16.2" font-family="Times,serif" font-size="14.00" fill="#000000">instruction streams S and S'</text>
</g>
<g id="clust3" class="cluster">
<title>cluster_0</title>
<polygon fill="#d3d3d3" stroke="#d3d3d3" stroke-width="0" points="188,-194.0292 188,-342.8292 258,-342.8292 258,-194.0292 188,-194.0292"/>
<text text-anchor="middle" x="223" y="-326.2292" font-family="Times,serif" font-size="14.00" fill="#000000">S</text>
</g>
<g id="clust4" class="cluster">
<title>cluster_1</title>
<polygon fill="none" stroke="#000000" stroke-width="0" points="266,-194.0292 266,-342.8292 336,-342.8292 336,-194.0292 266,-194.0292"/>
<text text-anchor="middle" x="301" y="-326.2292" font-family="Times,serif" font-size="14.00" fill="#000000">S'</text>
</g>
<!-- start2 -->
<g id="node1" class="node">
<title>start2</title>
<polygon fill="none" stroke="#000000" points="87,-386.8292 47.7627,-368.8292 87,-350.8292 126.2373,-368.8292 87,-386.8292"/>
<polyline fill="none" stroke="#000000" points="58.6698,-373.8328 58.6698,-363.8256 "/>
<polyline fill="none" stroke="#000000" points="76.0929,-355.8328 97.9071,-355.8328 "/>
<polyline fill="none" stroke="#000000" points="115.3302,-363.8256 115.3302,-373.8328 "/>
<polyline fill="none" stroke="#000000" points="97.9071,-381.8256 76.0929,-381.8256 "/>
<text text-anchor="middle" x="87" y="-364.6292" font-family="Times,serif" font-size="14.00" fill="#000000">start</text>
</g>
<!-- a -->
<g id="node2" class="node">
<title>a</title>
<ellipse fill="none" stroke="#000000" cx="87" cy="-292.0292" rx="27" ry="18"/>
<text text-anchor="middle" x="87" y="-287.8292" font-family="Times,serif" font-size="14.00" fill="#000000">a</text>
</g>
<!-- start2&#45;&gt;a -->
<g id="edge1" class="edge">
<title>start2-&gt;a</title>
<path fill="none" stroke="#000000" d="M87,-350.6287C87,-341.5424 87,-330.3468 87,-320.1841"/>
<polygon fill="#000000" stroke="#000000" points="90.5001,-320.099 87,-310.0991 83.5001,-320.0991 90.5001,-320.099"/>
</g>
<!-- b -->
<g id="node3" class="node">
<title>b</title>
<ellipse fill="none" stroke="#000000" cx="87" cy="-220.0292" rx="27" ry="18"/>
<text text-anchor="middle" x="87" y="-215.8292" font-family="Times,serif" font-size="14.00" fill="#000000">b</text>
</g>
<!-- a&#45;&gt;b -->
<g id="edge2" class="edge">
<title>a-&gt;b</title>
<path fill="none" stroke="#000000" d="M87,-273.8606C87,-266.1602 87,-257.0035 87,-248.4458"/>
<polygon fill="#000000" stroke="#000000" points="90.5001,-248.4424 87,-238.4425 83.5001,-248.4425 90.5001,-248.4424"/>
</g>
<!-- end2 -->
<g id="node4" class="node">
<title>end2</title>
<polygon fill="none" stroke="#000000" points="105.2152,-166.1371 68.7848,-166.1371 68.7848,-129.7067 105.2152,-129.7067 105.2152,-166.1371"/>
<polyline fill="none" stroke="#000000" points="80.7848,-166.1371 68.7848,-154.1371 "/>
<polyline fill="none" stroke="#000000" points="68.7848,-141.7067 80.7848,-129.7067 "/>
<polyline fill="none" stroke="#000000" points="93.2152,-129.7067 105.2152,-141.7067 "/>
<polyline fill="none" stroke="#000000" points="105.2152,-154.1371 93.2152,-166.1371 "/>
<text text-anchor="middle" x="87" y="-143.7219" font-family="Times,serif" font-size="14.00" fill="#000000">end</text>
</g>
<!-- b&#45;&gt;end2 -->
<g id="edge3" class="edge">
<title>b-&gt;end2</title>
<path fill="none" stroke="#000000" d="M87,-201.8335C87,-194.0623 87,-184.8102 87,-176.1832"/>
<polygon fill="#000000" stroke="#000000" points="90.5001,-176.1118 87,-166.1118 83.5001,-176.1118 90.5001,-176.1118"/>
</g>
<!-- invi -->
<!-- end2&#45;&gt;invi -->
<!-- a1 -->
<g id="node6" class="node">
<title>a1</title>
<ellipse fill="#ffffff" stroke="#000000" cx="223" cy="-292.0292" rx="27" ry="18"/>
<text text-anchor="middle" x="223" y="-287.8292" font-family="Times,serif" font-size="14.00" fill="#000000">a</text>
</g>
<!-- b1 -->
<g id="node8" class="node">
<title>b1</title>
<ellipse fill="#ffffff" stroke="#000000" cx="223" cy="-220.0292" rx="27" ry="18"/>
<text text-anchor="middle" x="223" y="-215.8292" font-family="Times,serif" font-size="14.00" fill="#000000">b</text>
</g>
<!-- a1&#45;&gt;b1 -->
<g id="edge5" class="edge">
<title>a1-&gt;b1</title>
<path fill="none" stroke="#000000" d="M223,-273.8606C223,-266.1602 223,-257.0035 223,-248.4458"/>
<polygon fill="#000000" stroke="#000000" points="226.5001,-248.4424 223,-238.4425 219.5001,-248.4425 226.5001,-248.4424"/>
</g>
<!-- a2 -->
<g id="node7" class="node">
<title>a2</title>
<ellipse fill="none" stroke="#000000" cx="301" cy="-292.0292" rx="27" ry="18"/>
<text text-anchor="middle" x="301" y="-287.8292" font-family="Times,serif" font-size="14.00" fill="#000000">a'</text>
</g>
<!-- b2 -->
<g id="node9" class="node">
<title>b2</title>
<ellipse fill="none" stroke="#000000" cx="301" cy="-220.0292" rx="27" ry="18"/>
<text text-anchor="middle" x="301" y="-215.8292" font-family="Times,serif" font-size="14.00" fill="#000000">b'</text>
</g>
<!-- a2&#45;&gt;b2 -->
<g id="edge6" class="edge">
<title>a2-&gt;b2</title>
<path fill="none" stroke="#000000" d="M301,-273.8606C301,-266.1602 301,-257.0035 301,-248.4458"/>
<polygon fill="#000000" stroke="#000000" points="304.5001,-248.4424 301,-238.4425 297.5001,-248.4425 304.5001,-248.4424"/>
</g>
<!-- cmp -->
<g id="node11" class="node">
<title>cmp</title>
<ellipse fill="none" stroke="#000000" cx="229" cy="-147.9219" rx="27.8286" ry="18"/>
<text text-anchor="middle" x="229" y="-143.7219" font-family="Times,serif" font-size="14.00" fill="#000000">cmp</text>
</g>
<!-- b1&#45;&gt;cmp -->
<g id="edge9" class="edge">
<title>b1-&gt;cmp</title>
<path fill="none" stroke="#000000" d="M224.5141,-201.8335C225.1607,-194.0623 225.9306,-184.8102 226.6484,-176.1832"/>
<polygon fill="#000000" stroke="#000000" points="230.1451,-176.3676 227.4864,-166.1118 223.1692,-175.7871 230.1451,-176.3676"/>
</g>
<!-- b2&#45;&gt;cmp -->
<g id="edge10" class="edge">
<title>b2-&gt;cmp</title>
<path fill="none" stroke="#000000" d="M285.7307,-204.7371C275.803,-194.7947 262.6847,-181.6568 251.5637,-170.5192"/>
<polygon fill="#000000" stroke="#000000" points="253.7899,-167.7953 244.2473,-163.192 248.8364,-172.7414 253.7899,-167.7953"/>
</g>
<!-- start -->
<g id="node10" class="node">
<title>start</title>
<polygon fill="none" stroke="#000000" points="259,-386.8292 219.7627,-368.8292 259,-350.8292 298.2373,-368.8292 259,-386.8292"/>
<polyline fill="none" stroke="#000000" points="230.6698,-373.8328 230.6698,-363.8256 "/>
<polyline fill="none" stroke="#000000" points="248.0929,-355.8328 269.9071,-355.8328 "/>
<polyline fill="none" stroke="#000000" points="287.3302,-363.8256 287.3302,-373.8328 "/>
<polyline fill="none" stroke="#000000" points="269.9071,-381.8256 248.0929,-381.8256 "/>
<text text-anchor="middle" x="259" y="-364.6292" font-family="Times,serif" font-size="14.00" fill="#000000">start</text>
</g>
<!-- start&#45;&gt;a1 -->
<g id="edge7" class="edge">
<title>start-&gt;a1</title>
<path fill="none" stroke="#000000" d="M251.8876,-353.656C247.213,-343.6836 240.9692,-330.3635 235.4826,-318.6587"/>
<polygon fill="#000000" stroke="#000000" points="238.5164,-316.8845 231.1029,-309.3155 232.1782,-319.8556 238.5164,-316.8845"/>
</g>
<!-- start&#45;&gt;a2 -->
<g id="edge8" class="edge">
<title>start-&gt;a2</title>
<path fill="none" stroke="#000000" d="M266.8999,-354.3837C272.5048,-344.1346 280.1828,-330.0949 286.8342,-317.9324"/>
<polygon fill="#000000" stroke="#000000" points="289.9417,-319.5446 291.6691,-309.0915 283.8001,-316.1858 289.9417,-319.5446"/>
</g>
<!-- end -->
<g id="node12" class="node">
<title>end</title>
<polygon fill="none" stroke="#000000" points="247.2152,-93.9225 210.7848,-93.9225 210.7848,-57.4921 247.2152,-57.4921 247.2152,-93.9225"/>
<polyline fill="none" stroke="#000000" points="222.7848,-93.9225 210.7848,-81.9225 "/>
<polyline fill="none" stroke="#000000" points="210.7848,-69.4921 222.7848,-57.4921 "/>
<polyline fill="none" stroke="#000000" points="235.2152,-57.4921 247.2152,-69.4921 "/>
<polyline fill="none" stroke="#000000" points="247.2152,-81.9225 235.2152,-93.9225 "/>
<text text-anchor="middle" x="229" y="-71.5073" font-family="Times,serif" font-size="14.00" fill="#000000">end</text>
</g>
<!-- cmp&#45;&gt;end -->
<g id="edge11" class="edge">
<title>cmp-&gt;end</title>
<path fill="none" stroke="#000000" d="M229,-129.6991C229,-121.9163 229,-112.6505 229,-104.0107"/>
<polygon fill="#000000" stroke="#000000" points="232.5001,-103.9242 229,-93.9243 225.5001,-103.9243 232.5001,-103.9242"/>
</g>
<!-- error -->
<g id="node13" class="node">
<title>error</title>
<ellipse fill="#ce2029" fill-opacity="0.878431" stroke="#000000" cx="304" cy="-147.9219" rx="29.5936" ry="18"/>
<text text-anchor="middle" x="304" y="-143.7219" font-family="Times,serif" font-size="14.00" fill="#000000">error</text>
</g>
<!-- cmp&#45;&gt;error -->
<g id="edge12" class="edge">
<title>cmp-&gt;error</title>
<path fill="none" stroke="#000000" d="M256.832,-147.9219C259.2676,-147.9219 261.7031,-147.9219 264.1387,-147.9219"/>
<polygon fill="#000000" stroke="#000000" points="264.1516,-151.422 274.1515,-147.9219 264.1515,-144.422 264.1516,-151.422"/>
</g>
</g>
</svg>